<?xml version="1.0" encoding="utf-8"?>
<!-- Generator: Adobe Illustrator 23.0.4, SVG Export Plug-In . SVG Version: 6.00 Build 0)  -->
<svg version="1.1" id="Layer_2" xmlns="http://www.w3.org/2000/svg" xmlns:xlink="http://www.w3.org/1999/xlink" x="0px" y="0px"
	 viewBox="0 0 201.13 149.65" style="enable-background:new 0 0 201.13 149.65;" xml:space="preserve">
<style type="text/css">
	.st0{fill:#CE893A;}
	.st1{fill:#FFFFFF;}
	.st2{font-family:'ViolentaSlabInline';}
	.st3{font-size:16.8557px;}
</style>
<g>
	<g>
		<path class="st0" d="M152.01,77.04l3.81-0.98l-0.4-2.16L151.84,75C151.97,75.72,152.02,76.4,152.01,77.04z"/>
	</g>
	<g>
		<path class="st0" d="M124.72,56.92l-2.66,3.51c0.05,0.39,0.11,0.8,0.17,1.25l8.19-9.97c0.01-0.11,0-0.23,0.01-0.34
			c0.05-0.76,0.06-1.45,0.06-2.06l-1.79,2.36C128.11,54.1,126.8,55.92,124.72,56.92z"/>
	</g>
	<g>
		<path class="st0" d="M149.36,83.01l7.22-1.11l-0.32-2.19l-5.12,1.04C150.67,81.71,150.04,82.47,149.36,83.01z"/>
	</g>
	<g>
		<path class="st0" d="M145.46,62.72l5.67-3.38l-0.84-1.97l-5.58,3.67C144.95,61.6,145.2,62.16,145.46,62.72z"/>
	</g>
	<g>
		<path class="st0" d="M147.96,67.19l5.12-2.44l-0.7-2.05l-5.41,2.89C147.29,66.12,147.61,66.65,147.96,67.19z"/>
	</g>
	<g>
		<path class="st0" d="M150.76,71.75l3.89-1.41l-0.55-2.11L149.83,70C150.19,70.6,150.5,71.18,150.76,71.75z"/>
	</g>
	<g>
		<path class="st0" d="M143.56,57.97l5.24-3.81l-0.97-1.88l-4.82,3.83C143.18,56.73,143.36,57.35,143.56,57.97z"/>
	</g>
	<g>
		<path class="st0" d="M134.93,84.06l-4.55,0.93c-0.47,0.36-0.94,0.76-1.3,1.15l9.46-1.46C137.17,84.51,135.92,84.28,134.93,84.06z"
			/>
	</g>
	<g>
		<path class="st0" d="M116.1,31.49c0,0-0.11,0.87,0.31,2.26l1.49-4.04C116.83,31.31,116.1,31.49,116.1,31.49z"/>
	</g>
	<g>
		<path class="st0" d="M60.87,57.23c-0.02-0.08-0.04-0.15-0.06-0.23c-0.12-0.03-0.22-0.08-0.33-0.11L60.87,57.23z"/>
	</g>
	<g>
		<path class="st0" d="M127.65,68.33c0.27,0.2,0.55,0.4,0.84,0.59l5.2-3.78c-0.14-0.35-0.32-0.76-0.51-1.21L127.65,68.33z"/>
	</g>
	<g>
		<path class="st0" d="M131.19,69.95c2.12,0.31,2.98-0.64,3.06-2.02L131.19,69.95z"/>
	</g>
	<g>
		<path class="st0" d="M124.25,67.13c0.45-0.02,0.84,0.02,1.2,0.09l6.72-5.84c-0.15-0.42-0.31-0.86-0.45-1.31L124.25,67.13z"/>
	</g>
	<g>
		<path class="st0" d="M122.68,64.46c0.06,0.34,0.12,0.68,0.19,1.03l8.05-8.31c-0.11-0.53-0.21-1.06-0.3-1.62L122.68,64.46z"/>
	</g>
	<g>
		<path class="st0" d="M129.31,88.4l11.62,0.22l16.01-0.83l-0.09-2.22l-27.59,2.81C129.28,88.39,129.29,88.4,129.31,88.4z"/>
	</g>
	<g>
		<polygon class="st0" points="67.96,78.29 43.03,67.93 42.44,70.04 68.36,79.39 		"/>
	</g>
	<g>
		<polygon class="st0" points="68.38,74.95 44.88,62.41 44.15,64.47 68.25,75.91 		"/>
	</g>
	<g>
		<path class="st0" d="M69.37,71.81L47.11,57.1l-0.87,1.97L68.8,72.54C68.93,72.4,69.14,72.15,69.37,71.81z"/>
	</g>
	<g>
		<polygon class="st0" points="67.85,88.01 67.86,87.97 39.84,85.27 39.71,87.49 54.13,88.16 		"/>
	</g>
	<g>
		<path class="st0" d="M70.62,68.77l-4.58-3.66c-0.57-0.37-1.14-0.81-1.68-1.34L49.69,52.03l-1.01,1.88l21.71,15.84
			C70.49,69.44,70.57,69.11,70.62,68.77z"/>
	</g>
	<g>
		<polygon class="st0" points="69.35,82.17 69.31,82.06 41.56,73.6 41.12,75.77 69.18,82.85 		"/>
	</g>
	<g>
		<polygon class="st0" points="68.63,84.99 40.5,79.39 40.21,81.59 68.42,85.78 		"/>
	</g>
	<g>
		<path class="st0" d="M125.89,34.27l0.23-0.48c0.27-0.89,0.95-2.97,1.89-4.25l-1.47-0.98l-2.94,6.64
			C124.7,34.76,125.59,34.39,125.89,34.27z"/>
	</g>
	<g>
		<path class="st0" d="M56.54,50.97l-3.92-3.75L51.49,49l6,5.26C56.98,53.31,56.67,52.19,56.54,50.97z"/>
	</g>
	<g>
		<path class="st0" d="M142.21,52.65l3.92-3.41l-1.1-1.77l-3.17,3C141.96,51.19,142.08,51.91,142.21,52.65z"/>
	</g>
	<g>
		<path class="st0" d="M141.44,46.33l1.67-1.72l-1.22-1.65l-0.58,0.65C141.34,44.5,141.38,45.41,141.44,46.33z"/>
	</g>
	<g>
		<path class="st0" d="M119.97,36.51l3.84-9.61l-1.68-0.9l-3.93,10.97C118.64,36.91,119.27,36.74,119.97,36.51z"/>
	</g>
	<g>
		<path class="st0" d="M57.26,44.31l-1.39-1.58l-1.25,1.66l2.1,2.19C56.85,45.82,57.03,45.05,57.26,44.31z"/>
	</g>
	<g>
		<path class="st0" d="M59.84,39.14l-0.42-0.57l-1.36,1.53l0.63,0.79C59.04,40.25,59.43,39.67,59.84,39.14z"/>
	</g>
	<g>
		<path class="st0" d="M119.28,24.69l0.02-0.06l-0.02-0.01C119.28,24.64,119.28,24.66,119.28,24.69z"/>
	</g>
</g>
<g>
	<g>
		<path class="st1" d="M63.99,55.64c0.16-1.9,0.72-3.46,1.14-4.09c-1.21,4.46-0.36,7.06,1.33,9.76c1.69,2.7,4.38,3.21,5.97,2.3
			c-0.88,0.07-1.77,0.2-3.26-0.51c1.61,0.27,4.17-1.05,4.01-2.4c-1.2,1.42-3.72,1.82-5.15,0.14c2.19,1.18,5.07-0.68,5.53-2.33
			c-1.69,1.89-4.5,1.96-5.93,0.24c2.59,1.14,5.12-0.27,6.04-3.14c-1.01,0.91-2.83,2.36-4.69,1.55c2.37,0.07,4.52-1.55,4.54-3.75
			c-1.03,2.23-3.67,3.11-4.96,2.33c3.41,0.07,4.42-2.36,4.3-4.63c-0.51,1.79-1.71,3.17-2.79,3.11c2.16-0.88,2.49-4.19,2.49-4.19
			s0.16-2.6,0.41-4.79c0,0-0.7,0.51-1.76,1.92c0.39-2.33,2.2-3.58,2.78-4.69c-2.52,1.45-3.41,3.41-4.21,6.45
			c0.04-5.13,2.62-6.41,4.46-7.7c1.84-1.28,2.41-4.9,2.7-7.23c0.29-2.33,2.07-4.9,4.65-5.87c-0.36-0.27-1.11-0.3-2.29-0.27
			c0,0,2.18-1.45,4.22,0.17c2.04,1.62,4.43,2.03,6.72,1.32c2.29-0.71,3.59-3.71,6.96-4.25c3.37-0.54,6.9,0.14,9.2,0.1
			s3.64-1.59,4-2.87c0.33,1.25-0.77,3.34-3.42,3.88c3.46,0.71,5.51-2.83,5.3-5.1c0.87,3-0.9,5.03-2.96,6.04
			c3.39-0.14,4.72-3.65,4.34-5.84c0.97,2.09,0.1,4.52-1.79,6.31c3.27-1.38,3.7-4.83,3.13-6.85c1.57,2.43,0.62,5.51-1.92,7.23
			c2.22-0.64,3.65-2.67,3.72-4.49c0.17-4.58-4.53-7.26-10.67-9.41c-3.02-0.74-6.44-1.24-9.94-1.39c0.27,0.05,0.52,0.11,0.74,0.17
			c-3.51,0.04-9.69,0.05-16.28,1.95c-2.12,0.78-4.22,1.76-6.17,2.88c-4.91,3.37-12.28,9.23-10.71,21.02c-1.28,1.64-3.64,5-4.15,8.81
			c-0.12,1.5,0.04,3.03,0.63,4.55C60.95,53.53,61.98,54.63,63.99,55.64z M71.13,51.26c0.08,0.47-0.1,1.04-0.53,1.07
			C70.64,51.86,70.6,51.29,71.13,51.26z M113.13,20.16c-0.65-0.57-0.6-0.94-0.72-1.34C113.07,18.98,113.18,19.73,113.13,20.16z
			 M111.8,18.08c-0.93-0.2-1.23-0.94-1.23-0.94C111.1,17.18,111.68,17.78,111.8,18.08z M110.2,19.12c0.45,0.2,0.24,1.3,0.09,1.57
			C109.96,19.95,110.2,19.12,110.2,19.12z M108.48,16.28c0.37-0.13,0.67,0,0.86,0.43C108.4,16.68,108.48,16.28,108.48,16.28z
			 M108.25,19.75c0.52,0.47,0.28,0.84-0.04,1.22C107.96,20.26,108.25,19.75,108.25,19.75z M108.14,21.88
			c0.15,0.64-0.28,1.15-0.89,1.32C107.58,22.42,108.14,21.88,108.14,21.88z M84.61,26.94c0.44,0,1.08,0.17,1.49,0.84
			C84.68,27.82,84.73,27.38,84.61,26.94z M93.93,25.46c-3.63,3-4.5,3.71-6.77,2.87c3.91,0.33,4.13-3.28,7.41-4.66
			c4.09-1.72,9.75,0.74,11.57,0.07C103.06,24.71,97.56,22.45,93.93,25.46z M105.66,18.38c0.22,0.5-0.06,0.67-0.5,0.74
			C105.21,18.71,105.66,18.38,105.66,18.38z M103.84,20.02c-0.29,0.51-0.7,0.52-1.06,0.4C103.2,20.09,103.84,20.02,103.84,20.02z
			 M101.09,20.26c-0.96,0.41-1.86-0.07-2.16-0.24C100.2,19.65,101.09,20.26,101.09,20.26z M96.87,20.09
			c-2.21,0.37-4.44,1.15-5.84,2.46C92.38,20.63,94.21,19.75,96.87,20.09z M89.33,23.63c-0.77,1.04-1.64,0.84-2.36,0.43
			C87.45,23.79,88.34,24.03,89.33,23.63z M91.98,23.19c3.41-3.11,7.75-1.79,9.49-1.45c1.75,0.34,3.81-0.44,4.79-1.49
			c-0.5,0.74-1.74,2.19-4.97,1.79c-3.23-0.41-6.54-0.51-8.68,1.49s-4.94,3.82-8.28,1.55C86.87,26.23,89.2,25.73,91.98,23.19z
			 M83.75,26.8c-0.67,0.13-0.77,0-0.86-0.4C83.27,26.2,83.69,26.64,83.75,26.8z M81.38,25.85c-0.65,0.28-0.82-0.42-0.82-0.42
			C81.03,25.26,81.26,25.47,81.38,25.85z M77.96,29.47c-1.93,1.92-1.84,3.54-2.21,4.52C75.27,32.61,76.34,30.04,77.96,29.47z
			 M76.74,28.11c-0.35,0.34-0.94,1.07-1.17,1.67C75.28,28.67,75.94,28.17,76.74,28.11z M75.57,34.85c0,0-0.06,1.2-0.2,2.23
			c-0.14,1.03-0.46,2.6-2.05,3.84c-1.16,0.9-2.67,1.65-3.75,3.6c-0.01-0.66,0.84-2.68,2.42-3.6c1.59-0.92,2.38-2.19,2.77-3.66
			C75,36.37,74.94,35.22,75.57,34.85z M74.74,31.56c-0.08,0.38,0,0.82-0.28,1.12C74.38,32.35,74.33,31.81,74.74,31.56z M72.84,38.53
			c0.32-1.3,1.01-2.05,1.22-4.88C74.44,35.12,74.07,38.03,72.84,38.53z M73.13,30.74c-0.19,0.6-0.26,1.74-0.65,2.31
			C72.3,32.35,72.4,31.31,73.13,30.74z M72.22,34.85c0.01,0.9-0.35,2-1.07,2.4C71.17,36.68,71.95,35.45,72.22,34.85z M70.29,38.67
			c0.02,0.48-0.23,0.69-0.53,0.83C69.77,39.23,69.79,38.76,70.29,38.67z M72.06,39.36c-0.21,0.67-1.72,1.67-2.36,1.8
			C70.12,40.53,71.57,39.5,72.06,39.36z M68.26,48.48c-0.33-0.17-0.48-0.57-0.26-1.04C68.39,47.65,68.34,48.15,68.26,48.48z
			 M68.98,42.42c-0.51,1.02-0.64,1.86-0.94,3.6C67.79,45.58,67.69,43.04,68.98,42.42z"/>
	</g>
	<g>
		<path class="st1" d="M68.9,89.07c0.02-0.01,0.04-0.03,0.06-0.04C68.94,89.04,68.92,89.06,68.9,89.07z"/>
	</g>
	<g>
		<polygon class="st1" points="69.25,88.83 69.24,88.83 69.25,88.83 		"/>
	</g>
	<g>
		<polygon class="st1" points="122.86,92.6 122.86,92.6 122.86,92.6 		"/>
	</g>
	<g>
		<g>
			<path class="st1" d="M122.56,53.43c-2.01,0.71-4.4,0.69-5.48,0.63c0.82,5.27,1.45,9.05,2.54,13.96c0.35-0.1,0.34-0.08,0.67-0.16
				l-2.11-12.71c5.88-0.06,7.96-2.04,8.64-5.31c0.27-1.28,0.41-3.02,0.72-4.43c-0.41,0.7-0.66,1.55-0.79,2.33
				C126.4,49.7,125.28,52.46,122.56,53.43z"/>
		</g>
		<g>
			<path class="st1" d="M140.33,48.73c-0.41,5.38,0.02,10.41,2.86,16.02c4.2,8.3,6.13,11.82,2.49,15.13
				c-4.82,4.38-9.88-0.1-13.93,0.68c-3.89,0.75-6.32,3.83-10.07,4.04c0.17,1.22,0.3,2.27,0.41,3.12c0,0,0.24-0.03,1.08,0
				s0.83,1.35,0.94,2.84c0.08,1.01-0.13,1.64-0.91,1.95c1.93-0.63,2.22-1.86,1.49-4.61c-0.33-1.1-1.6-1.33-1.6-1.33l0.03-0.79
				c4.37-1.44,5.92-4.17,8.78-4.57c1.71-0.24,3.67,0.51,5.8,1.12c6.68,1.93,10.55-2.63,10.93-5.13
				C149.71,70.06,139.42,63.88,140.33,48.73z"/>
		</g>
		<g>
			<path class="st1" d="M118.12,22.72c0.37,3.5-1.96,6.48-5.54,7.22c0.46,0.41,0.75,0.81,0.93,1.42c0.07,0.53,0.51,3.29,1.15,7.34
				l0,0c0.26,0.05,0.53,0.09,0.81,0.12l-1.42-8.57c4.03-0.97,6.03-6.53,3.45-9.67C117.84,21.29,118.05,22.01,118.12,22.72z"/>
		</g>
	</g>
	<g>
		<g>
			<path class="st1" d="M90.21,77.71c-0.51,0.03-1.01,0.06-1.51,0.09l-0.37,10c0.5-0.01,1.02-0.03,1.54-0.04
				C89.89,86.17,90.11,82.48,90.21,77.71z"/>
		</g>
		<g>
			<path class="st1" d="M97.91,87.64c0-1.6,0-7.82-0.1-10.14c-0.54,0-1.08,0.01-1.61,0.01c0.02,2.49-0.26,8.6-0.33,10.14
				C96.54,87.65,97.22,87.64,97.91,87.64z"/>
		</g>
		<g>
			<path class="st1" d="M91.84,87.71c1.16-0.02,2.35-0.04,3.57-0.05c0.03-1.56,0.15-7.84,0.04-10.14c-1.22,0.02-2.44,0.06-3.64,0.11
				C91.81,81.11,91.82,84.5,91.84,87.71z"/>
		</g>
		<g>
			<path class="st1" d="M82.16,88.06c1.49-0.09,3.17-0.16,4.98-0.22c0.12-1.58,0.57-7.56,0.73-9.98c-1.81,0.12-3.56,0.27-5.2,0.44
				C82.5,81.47,82.33,84.74,82.16,88.06z"/>
		</g>
		<g>
			<path class="st1" d="M92.49,45.34c-0.14,0.01-0.28,0.02-0.43,0.03c-0.09,6.88-0.18,15.14-0.22,23.46
				c1.04-0.07,2.14-0.12,3.25-0.16c-0.04-3.07-0.51-16.35-0.54-23.43C93.82,45.27,93.13,45.3,92.49,45.34z"/>
		</g>
		<g>
			<path class="st1" d="M99.71,68.6c-0.23-7.41-0.48-15.79-0.71-23.4c-0.53-0.01-1.05-0.02-1.57-0.02
				c0.01,4.22,0.88,21.28,0.99,23.42C98.86,68.6,99.28,68.6,99.71,68.6z"/>
		</g>
		<g>
			<path class="st1" d="M113.21,48.15c0.55,5.07,2.59,19.84,2.98,22.66c0.35,0.1,0.64,0.2,0.88,0.28
				c-0.81-6.26-2.28-14.95-3.48-22.75C113.46,48.26,113.33,48.21,113.21,48.15z"/>
		</g>
		<g>
			<path class="st1" d="M85.11,38.72c1.26-0.7,3.34-1.21,5.85-1.53c0.09-3.51,0.05-6.05,0.09-7.28c-0.28,0.14-0.57,0.26-0.89,0.37
				c-0.06,0.02-0.12,0.04-0.19,0.06c-0.04,0.7-0.18,3.01-0.66,6c0,0-0.09-3.86-0.05-5.81c-1.89,0.39-3.21-0.31-4.47-0.97
				c-0.09,1.33-0.5,6.88-0.94,8.39c0.01-1.22-0.03-6.66,0.08-8.82c-0.12-0.06-0.24-0.11-0.36-0.16c-1.05,0.03-1.98,0.32-2.77,0.74
				c-0.65,2.04-0.87,6.17-1.48,9.02c-0.12-1.57,0.09-6.38,0.43-8.34c-0.58,0.46-1.03,0.97-1.32,1.42c-0.99,1.57-0.94,6.07-1.86,9.01
				c0,0,2.5-0.91,3.85-0.84c-1.14,0.51-5.42,2.9-5.77,3.21c-0.35,0.3-1.04,2.4-1.33,5.71c0,0,0.08,0.08,0.2,0.21
				c2.68-2.08,7.32-3.89,13.04-5.07c5.25-1.08,21.21-1.51,29.56,2.82c-0.02-0.12-0.03-0.24-0.04-0.36
				c-1.86-0.95-11.41-5.35-26.9-4.25c9.92-1.59,20.47,0.13,26.78,2.52c0-0.04,0-0.08,0-0.11c-1.61-0.79-11.09-5.04-26.72-3.92
				c10.04-1.63,20.5,0.06,26.72,2.52c0-0.07,0-0.14,0-0.22c-1.78-0.82-11.23-4.76-26.66-3.66c9.96-1.61,20.33-0.2,26.56,2.22
				c-0.01-0.11-0.02-0.22-0.04-0.34C110.74,38.72,98.07,36.01,85.11,38.72z"/>
		</g>
		<g>
			<path class="st1" d="M97.06,68.62c-0.05-2.51-0.34-17.18-0.24-23.43c-0.4,0-0.79,0.01-1.18,0.02c-0.52,4.47-0.42,14.1,0.05,23.44
				C96.15,68.64,96.61,68.63,97.06,68.62z"/>
		</g>
		<g>
			<path class="st1" d="M115.83,87.79l-1.22-9c-0.17-0.03-0.35-0.07-0.53-0.1l0.89,9.08C115.26,87.78,115.54,87.78,115.83,87.79z"/>
		</g>
		<g>
			<path class="st1" d="M110.48,78.15c0.45,4.46,0.82,7.9,1.04,9.56c0.41,0.01,0.82,0.01,1.23,0.02c-0.24-1.73-1.06-7.54-1.33-9.46
				C111.11,78.22,110.8,78.18,110.48,78.15z"/>
		</g>
		<g>
			<path class="st1" d="M114.06,87.75l-1.39-9.3c-0.24-0.04-0.48-0.07-0.72-0.11l1.29,9.4C113.51,87.74,113.79,87.75,114.06,87.75z"
				/>
		</g>
		<g>
			<path class="st1" d="M129.5,36.09c-2.07,1.99-8.6,3.98-13.55,4.09c0.59,0.41,1.21,1.18,1.21,1.18c0.1,1.13,0.32,2.75,0.53,4.16
				c1.04,0.86,1.98,0.37,2.17-0.18c0.22-0.61-0.27-1.25-0.87-1.35c1.64-0.41,2.4,1.07,2.12,2.23c-0.29,1.17-1.85,1.85-3.12,1.25
				c0.06,0.39,0.11,0.7,0.14,0.88c1.96,1.08,4.74-0.13,4.65-3.04c-0.1-2.9-2.7-3.04-4.09-2.89c2.11-1.22,5.16-0.52,5.41,2.96
				c0.24,3.48-2.45,4.93-3.72,5.44c3.04,0.1,4.95-2.9,5.2-5.3c0.26-2.4,2.38-4.02,4.65-4.12c-1.46-0.64-4-0.27-5.18,2.87
				c0.34-3.65,3.18-4.59,4.97-4.49c1.79,0.1,3.55,0.95,3.59,5.54c0.03,4.59-0.59,7.66,0.36,12.26c0.95,4.59,3.28,7.39,3.14,11.11
				c-0.11,3.12-1.95,3.69-2.85,3.85c-0.24,0.1-0.5,0.18-0.78,0.25c-0.85,0.19-1.57,0.24-2.2,0.18c0.01,0,0.02,0,0.03,0.01
				c-2.4,0.03-4.08-2.16-6.06-2.6c-1.6-0.35-4.45,0.57-5.49,0.93c0.03,0.23,0.07,0.45,0.1,0.67l1.25,0.62l0.51,3.51
				c1.02,0.5,1.74-0.1,1.76-0.64c0.02-0.57-0.33-1.05-0.92-1.15c1.8-0.57,2.3,1.38,1.76,2.33c-0.45,0.79-1.56,1.15-2.38,0.93
				l0.2,1.37c3.19-0.17,3.94-2.26,3.85-3.58c-0.09-1.32-0.91-2.9-3.64-3.07c2.67-0.74,4.49,0.27,5.04,2.67
				c0.55,2.4-1.04,5.2-4.6,6.38c2.56,0,4.77-1.96,4.77-1.96c3.78-1.65,6.83-0.88,8.67-0.17c1.83,0.71,6.1,1.69,8.33-1.18
				c-2.28,1.32-4.9,1.79-8.87,0.17c-3.97-1.62-7.75,0.14-7.75,0.14c0.64-0.91,4.18-2.36,7.22-1.32c3.04,1.05,5.74,2.13,8.18,0.27
				c2.44-1.86,1.21-5.2,0.31-6.65c-0.89-1.45-4.65-8.78-5.33-15.09c-0.68-6.31,1.23-11.31,1.41-16.17c0.18-4.86-0.7-8.44-4.58-8.74
				c-3.88-0.3-4.69,3.38-4.69,3.38c0-0.12,0.01-0.23,0.02-0.35C130,34.67,129.84,35.64,129.5,36.09L129.5,36.09L129.5,36.09z
				 M138.28,42.13c-0.7,5.27-1.56,9.22-0.73,14.32c0.83,5.1,2.67,9.32,4.56,12.96c1.9,3.65,1.8,5.82,0.34,7.11
				c-1.46,1.29-3.42,0.98-5.76,0.06c-2.24-0.88-5-1.38-7.92-0.49c2.39-1.42,5.66-0.94,7.36-0.47c2.24,0.61,4.14,1.28,5.5,0.17
				c1.54-1.27,0.26-5.27-0.32-6.11c-0.58-0.84-4.17-9.05-4.67-14.72c-0.5-5.67,0.59-9.66,1-14.32c0.41-4.66-0.02-6.78-1.69-8.41
				C138.59,33.76,138.98,36.87,138.28,42.13z M140.58,72.59c-0.22-1.01-0.3-1.92-0.35-2.53c0.77,1.92,1.47,3.14,0.96,4.15
				c-0.63,1.25-2.15,0.96-2.72,0.41C140,74.48,140.87,73.89,140.58,72.59z M136.29,42.07c0.14-3.88,0.11-6.72-1.39-8.07
				C136.86,34.67,137.1,36.6,136.29,42.07z"/>
		</g>
		<g>
			<path class="st1" d="M101.8,77.54c0.16,3.98,0.3,7.46,0.42,10.08c0.73,0,1.47,0,2.2,0.01c-0.17-1.79-0.68-7.24-0.94-10.03
				C102.93,77.58,102.37,77.56,101.8,77.54z"/>
		</g>
		<g>
			<path class="st1" d="M105.96,87.64c-0.09-1.59-0.46-7.85-0.63-9.95c-0.31-0.02-0.62-0.03-0.93-0.05l0.45,9.99
				C105.22,87.64,105.59,87.64,105.96,87.64z"/>
		</g>
		<g>
			<path class="st1" d="M99.06,87.63c0.43,0,0.86,0,1.29,0c-0.09-1.94-0.22-5.56-0.36-10.12c-0.33,0-0.66-0.01-1-0.01L99.06,87.63z"
				/>
		</g>
		<g>
			<path class="st1" d="M118.88,77.35c-0.68-0.21-10.59-3.21-26.26-3.14c7.17-0.97,20.16-0.25,26.15,1.84
				c-0.01-0.07-0.01-0.14-0.02-0.21c-1.52-0.57-11.25-3.95-26.08-3.27c7.6-1,19.98-0.3,25.95,1.8c-0.01-0.1-0.02-0.21-0.03-0.31
				c-2.12-0.75-11.87-3.88-26.12-3.22c7.51-0.99,19.92-0.13,25.98,1.92c-0.01-0.06-0.01-0.12-0.02-0.19c0-0.03-0.03-0.06-0.07-0.09
				l0.06,0.12c0,0-6.39-2.8-18.23-3.27c-7.13-0.28-12.02,0.2-14.92,0.29c0.68-0.18,1.69-0.34,2.92-0.48
				c0.02-0.6,0.24-5.74,0.68-8.71c0.13,2.41-0.05,8.39,0.13,8.6c0.01,0.01,0,0.02,0.01,0.02c0.4-0.04,0.82-0.08,1.25-0.11
				c0.15-7.61,0.62-16.23,0.82-23.49c-0.39,0.04-0.79,0.08-1.2,0.13c-0.12,2.08-0.46,7.71-0.87,11.25
				c-0.43-1.53-0.12-7.93,0.05-11.14c-1.6,0.22-3.26,0.52-4.87,0.91c-0.1,2.28-0.5,11.13-1.06,22.55l-0.02,0.63
				c0,0-2.51,0.16-3.35,0.28c0.58-0.32,1.48-0.56,2.2-0.71l1.33-22.52c-1.61,0.43-3.15,0.96-4.48,1.57
				c-0.22,1.47-0.78,5.08-1.44,9.44c0,0-0.03-3.4,0.5-8.97c-1,0.53-1.85,1.13-2.47,1.78c0.22,2.16-0.48,13.07-1.58,14.38
				c-0.11,0.14-0.55,3.88-0.65,6.58c0,0,0.75-0.2,1.33-0.17c-0.69,0.37-2.18,1.25-3.01,1.86c-0.83,0.61-0.83,3.24-0.73,5.17
				c1.78-0.68,8.32-1.86,16.87-2.4c8.55-0.54,23.49-0.41,31.31,1.58C118.9,77.55,118.89,77.45,118.88,77.35z M76.61,70.62
				c0,0-0.53,0.13-0.93,0.22c0,0,0.75-7.14,1.29-9.98C76.97,60.86,76.88,65.76,76.61,70.62z"/>
		</g>
		<g>
			<path class="st1" d="M107.65,87.66c0.35,0,0.69,0.01,1.04,0.01c-0.29-3.31-0.57-6.58-0.83-9.79c-0.43-0.04-0.87-0.07-1.31-0.1
				L107.65,87.66z"/>
		</g>
		<g>
			<path class="st1" d="M101.7,36.93c0.46,0.03,0.92,0.06,1.38,0.1c-0.25-1.65-0.61-7.5-0.7-9.94c-0.25-0.04-0.51-0.07-0.76-0.1
				L101.7,36.93z"/>
		</g>
		<g>
			<path class="st1" d="M110.65,30.07l0.8,8.45c0.3,0.09,0.59,0.19,0.87,0.29c-0.62-3.85-1.15-6.94-1.47-8.63
				C110.78,30.14,110.71,30.11,110.65,30.07z"/>
		</g>
		<g>
			<path class="st1" d="M104.07,37.13c0.33,0.03,0.65,0.07,0.97,0.11c-0.29-5.01-0.47-8.45-0.53-9.73
				c-0.34-0.08-0.68-0.16-1.02-0.22L104.07,37.13z"/>
		</g>
		<g>
			<path class="st1" d="M98.41,26.81c-0.19,0-0.38,0-0.56,0.02l-0.17,9.98c0.35,0,0.71,0,1.06,0.01
				C98.62,32.82,98.5,29.37,98.41,26.81z"/>
		</g>
		<g>
			<path class="st1" d="M109.06,37.9c-0.17-1.69-0.65-6.42-1.14-9.25c-0.1-0.05-0.21-0.09-0.31-0.13c0.17,2.18,0.54,7.31,0.35,9.17
				C108.33,37.75,108.7,37.82,109.06,37.9z"/>
		</g>
		<g>
			<path class="st1" d="M105.77,27.85c0.18,2.26,0.47,5.61,0.83,9.59c0.32,0.05,0.63,0.1,0.94,0.15c-0.19-1.73-0.51-6.11-0.91-9.46
				C106.35,28.04,106.06,27.94,105.77,27.85z"/>
		</g>
		<g>
			<path class="st1" d="M100.04,26.86c-0.46,2.61-0.2,5.83,0.01,9.99c0.44,0.02,0.88,0.04,1.32,0.06l-0.52-9.97
				C100.3,26.89,100.59,26.88,100.04,26.86z"/>
		</g>
		<g>
			<path class="st1" d="M70.41,91.66c1.59,0.03,40.33,0.24,47.6-0.43c-2.09-0.34-19.47-0.92-25.23-1.36
				c3.05-0.19,19.14-0.54,25.72-0.98c-3.48-0.17-27.42-0.51-40.45-0.51c0.8-0.09,1.75-0.17,2.79-0.25l0.57-9.72
				c-2.3,0.26-4.35,0.55-6.04,0.86c-0.09,1.7-0.51,9.21-0.51,9.21h-1.1l0.95-9.08c-1.33,0.26-2.4,0.52-3.13,0.78
				c0,0-0.42,3.95-0.83,7.93c0,0,1.83-0.07,2.21,0.54c-0.74,0.07-2.1,0.27-4.12,0.47c-0.62,0.54-0.66,1.17-0.52,1.69
				C68.57,91.26,68.91,91.63,70.41,91.66z"/>
		</g>
		<g>
			<path class="st1" d="M119.31,87.88c0,0-0.6-5.74-1.55-8.34c-0.16-0.05-0.32-0.09-0.48-0.13c0.38,2.2,0.91,6.77,1.14,8.45
				C118.71,87.86,119.01,87.87,119.31,87.88z"/>
		</g>
		<g>
			<path class="st1" d="M107.17,69.03c-0.66-8.68-1.19-16.63-1.61-23.24c-0.38-0.06-0.38-0.06-0.76-0.12l1.24,23.24
				C106.42,68.95,106.8,68.99,107.17,69.03z"/>
		</g>
		<g>
			<path class="st1" d="M95.2,27.49c-1.03,0.47-1.91,1.1-2.85,1.69c-0.07,1.34-0.28,4.11-0.36,7.89c1-0.1,2.06-0.17,3.15-0.22
				L95.2,27.49z"/>
		</g>
		<g>
			<path class="st1" d="M96.84,26.96c-0.48,0.1-0.84,0.21-1.25,0.37l0.24,9.5c0.44-0.01,0.61-0.02,1.06-0.02L96.84,26.96z"/>
		</g>
		<g>
			<path class="st1" d="M112.15,69.81c-0.55-3.16-1.82-18.78-2.16-22.97c-0.03-0.01-0.07-0.02-0.1-0.04
				c-0.37,7.7,1.5,20.22,1.92,22.94C111.93,69.77,112.04,69.79,112.15,69.81z"/>
		</g>
		<g>
			<path class="st1" d="M113.69,70.15c-0.69-6.85-1.48-13.82-2.01-18.43c0.3,5.34,0.82,12.44,1.52,18.32
				C113.36,70.07,113.53,70.11,113.69,70.15z"/>
		</g>
		<g>
			<path class="st1" d="M104.35,68.76c0.16,0.01,0.3,0.03,0.46,0.04c-0.14-2.53-0.92-16.74-1.49-23.31
				c-0.32-0.03-0.63-0.07-0.95-0.1c0.09,3.11,0.43,15.94,0.3,21.7c-0.17-2.23-1.12-16.77-1.55-21.8c-0.35-0.02,0-0.01-0.35-0.02
				c-0.16,7.85,0.35,15.75,0.66,23.36C102.47,68.65,103.46,68.7,104.35,68.76z"/>
		</g>
		<g>
			<path class="st1" d="M110.26,69.46c-0.14-4.47-1.42-15.66-1.9-22.99c0-0.04,0-0.07,0.01-0.1c-0.32-0.08-0.65-0.15-0.97-0.23
				c0.69,7.51,1.49,15.88,2.21,23.21C109.83,69.39,110.05,69.43,110.26,69.46z"/>
		</g>
	</g>
</g>
<g>
	<path class="st1" d="M24.14,92.39c20.37,0.65,46.17,1.04,74.25,1.04c28.08,0,53.87-0.39,74.25-1.04
		c-20.37-0.65-46.17-1.04-74.25-1.04C70.31,91.35,44.52,91.74,24.14,92.39z"/>
</g>
<g>
	<polygon class="st0" points="36.78,103.55 59.47,102.14 59.47,104.97 	"/>
</g>
<g>
	<polygon class="st0" points="159.34,103.55 136.65,104.97 136.65,102.14 	"/>
</g>
<g>
	<g>
		<path class="st0" d="M67.25,121.99c0.11,0.41,0,0.79-0.24,1.12c0.77,0.07,1.33,0.45,1.56,1.34c0.46,1.76-1.55,2.47-3.4,3.02
			c-1.88,0.56-2.82,0.86-4.69,1.5c-0.17-0.49-0.25-0.73-0.42-1.22c0.43-0.15,0.64-0.22,1.07-0.36c-0.5-1.5-0.75-2.25-1.25-3.76
			c-0.44,0.15-0.66,0.22-1.1,0.37c-0.16-0.45-0.23-0.68-0.39-1.13c2.06-0.71,3.1-1.04,5.18-1.65
			C65.26,120.72,66.85,120.49,67.25,121.99z M64.89,123.4c0.14-0.1,0.24-0.28,0.14-0.63c-0.18-0.63-0.63-0.55-1.19-0.38
			c-0.7,0.21-1.05,0.31-1.75,0.53c0.15,0.48,0.22,0.72,0.37,1.2C63.43,123.83,63.92,123.68,64.89,123.4z M64.85,126.22
			c1.32-0.39,1.52-0.64,1.38-1.14c-0.19-0.68-0.56-0.68-1.94-0.27c-0.59,0.18-0.89,0.27-1.47,0.45c0.18,0.58,0.27,0.87,0.45,1.44
			C63.9,126.51,64.22,126.41,64.85,126.22z"/>
		<path class="st0" d="M78.27,119.58c0.2,1.19-0.68,1.8-1.74,2.2c0.32,0.08,1.26,0.03,1.41,0.87c0.08,0.44,0.19,0.94,0.73,0.85
			c0.34-0.06,0.39-0.28,0.32-0.67c0-0.02-0.01-0.08-0.02-0.1c0.28-0.05,0.43-0.07,0.71-0.12c0.04,0.27,0.07,0.41,0.11,0.68
			c0.13,0.79-0.97,1.2-1.59,1.31c-1.23,0.22-2.24,0.24-2.53-1.19c-0.22-1.09-0.75-1.2-1.56-1.03c-0.21,0.04-0.31,0.07-0.52,0.11
			c0.12,0.57,0.18,0.86,0.31,1.43c0.47-0.1,0.71-0.15,1.18-0.25c0.1,0.51,0.16,0.76,0.26,1.26c-1.75,0.36-2.62,0.55-4.35,0.97
			c-0.12-0.5-0.18-0.75-0.31-1.25c0.42-0.1,0.63-0.15,1.05-0.25c-0.36-1.54-0.54-2.31-0.9-3.85c-0.45,0.11-0.67,0.16-1.12,0.27
			c-0.11-0.47-0.17-0.7-0.28-1.16c1.75-0.43,3.51-0.83,5.27-1.17C76.73,118.07,78.03,118.21,78.27,119.58z M74.36,121.21
			c1.57-0.32,1.74-0.49,1.63-1.04c-0.12-0.64-0.57-0.58-1.14-0.49c-0.2,0.03-0.47,0.08-0.73,0.14c-0.53,0.11-1.05,0.23-1.05,0.23
			c0.12,0.55,0.18,0.82,0.29,1.37C73.77,121.33,73.97,121.29,74.36,121.21z"/>
		<path class="st0" d="M81.43,122.54c0.44-0.07,0.66-0.1,1.1-0.16c-0.22-1.57-0.33-2.35-0.55-3.92c-0.46,0.06-0.68,0.1-1.14,0.16
			c-0.07-0.47-0.11-0.71-0.18-1.18c3.45-0.52,5.19-0.71,8.66-0.99c0.08,1,0.12,1.49,0.2,2.49c-0.6,0.05-0.9,0.07-1.5,0.13
			c-0.05-0.52-0.07-0.78-0.12-1.3c-1.46,0.13-2.19,0.21-3.65,0.39c0.06,0.53,0.1,0.8,0.16,1.33c0.99-0.12,1.49-0.17,2.48-0.28
			c0.05,0.48,0.07,0.71,0.12,1.19c-0.98,0.1-1.47,0.15-2.45,0.27c0.07,0.56,0.1,0.84,0.17,1.41c1.41-0.17,2.12-0.25,3.53-0.38
			c-0.04-0.49-0.07-0.73-0.11-1.21c0.59-0.05,0.89-0.08,1.49-0.13c0.08,1,0.12,1.5,0.2,2.5c-3.3,0.26-4.94,0.45-8.22,0.94
			C81.54,123.31,81.5,123.05,81.43,122.54z"/>
		<path class="st0" d="M91,116.35c1.65-0.11,2.48-0.15,4.13-0.2c0.02,0.48,0.02,0.72,0.04,1.2c-0.22,0.01-0.32,0.01-0.54,0.02
			c0.74,1.18,1.1,1.77,1.81,2.97c0.53-0.96,0.8-1.44,1.35-2.39c-0.17-0.26-0.25-0.39-0.42-0.65c-0.35,0.01-0.52,0.01-0.87,0.02
			c-0.01-0.48-0.02-0.72-0.03-1.2c1.92-0.04,2.88-0.05,4.8-0.02c-0.01,0.48-0.01,0.72-0.02,1.2c-0.48-0.01-0.71-0.01-1.19-0.01
			c0.63,1.2,0.93,1.8,1.53,3.01c0.64-1.18,0.97-1.77,1.64-2.95c-0.31-0.01-0.47-0.01-0.78-0.02c0.01-0.48,0.02-0.72,0.03-1.2
			c1.71,0.04,2.56,0.08,4.26,0.18c-0.03,0.48-0.04,0.72-0.07,1.2c-0.58-0.03-0.87-0.05-1.44-0.08c-1.34,2.04-1.99,3.07-3.23,5.14
			c-0.55-0.01-0.83-0.02-1.39-0.02c-0.76-1.29-1.15-1.93-1.95-3.21c-0.71,1.29-1.06,1.93-1.74,3.23c-0.55,0.01-0.83,0.02-1.39,0.04
			c-1.38-2.06-2.11-3.08-3.6-5.09c-0.35,0.02-0.52,0.03-0.87,0.05C91.05,117.06,91.03,116.82,91,116.35z"/>
		<path class="st0" d="M108.07,121.53c0.44,0.03,0.67,0.05,1.11,0.09c0.13-1.58,0.19-2.37,0.32-3.94c-0.46-0.04-0.69-0.06-1.14-0.09
			c0.03-0.48,0.05-0.72,0.09-1.19c3.47,0.25,5.21,0.44,8.66,0.93c-0.14,0.99-0.21,1.48-0.35,2.47c-0.6-0.09-0.9-0.13-1.5-0.2
			c0.07-0.52,0.1-0.77,0.17-1.29c-1.46-0.19-2.19-0.27-3.65-0.42c-0.05,0.53-0.08,0.8-0.13,1.34c0.99,0.1,1.49,0.15,2.48,0.27
			c-0.06,0.48-0.09,0.71-0.14,1.19c-0.98-0.12-1.47-0.17-2.45-0.27c-0.06,0.56-0.08,0.85-0.14,1.41c1.41,0.14,2.12,0.22,3.53,0.41
			c0.06-0.48,0.09-0.73,0.16-1.21c0.59,0.08,0.89,0.12,1.48,0.2c-0.14,0.99-0.21,1.49-0.35,2.48c-3.28-0.47-4.92-0.64-8.22-0.88
			C108.01,122.31,108.03,122.05,108.07,121.53z"/>
		<path class="st0" d="M127.28,120.97c-0.27,1.18-1.32,1.4-2.46,1.35c0.27,0.2,1.16,0.52,0.97,1.35c-0.1,0.44-0.19,0.94,0.34,1.06
			c0.33,0.08,0.47-0.11,0.55-0.49c0.01-0.02,0.02-0.08,0.02-0.1c0.28,0.07,0.42,0.1,0.7,0.17c-0.06,0.27-0.1,0.4-0.16,0.67
			c-0.19,0.78-1.36,0.73-1.98,0.59c-1.22-0.27-2.17-0.64-1.88-2.07c0.22-1.09-0.23-1.4-1.04-1.55c-0.21-0.04-0.31-0.06-0.52-0.1
			c-0.11,0.57-0.16,0.86-0.27,1.43c0.47,0.09,0.71,0.13,1.18,0.23c-0.1,0.51-0.15,0.76-0.25,1.27c-1.75-0.34-2.62-0.5-4.38-0.78
			c0.08-0.51,0.12-0.76,0.2-1.27c0.42,0.07,0.64,0.1,1.06,0.17c0.26-1.56,0.39-2.34,0.66-3.9c-0.45-0.08-0.68-0.11-1.14-0.19
			c0.08-0.47,0.11-0.71,0.19-1.18c1.78,0.28,3.55,0.59,5.31,0.95C126.44,118.98,127.59,119.62,127.28,120.97z M123.05,120.97
			c1.57,0.31,1.79,0.22,1.91-0.33c0.14-0.64-0.31-0.76-0.87-0.89c-0.2-0.05-0.46-0.1-0.73-0.15c-0.53-0.1-1.06-0.19-1.06-0.19
			c-0.1,0.55-0.16,0.83-0.26,1.38C122.45,120.85,122.65,120.89,123.05,120.97z"/>
		<path class="st0" d="M129.99,119.86c1.62,0.4,2.42,0.62,4.03,1.08c-0.13,0.46-0.2,0.69-0.33,1.15c-0.15-0.04-0.22-0.06-0.36-0.1
			c0.49,0.8,0.73,1.2,1.19,2.01c0.79-0.43,1.19-0.64,1.99-1.06c-0.25-0.08-0.38-0.12-0.63-0.19c0.14-0.46,0.21-0.69,0.35-1.15
			c1.6,0.49,2.4,0.75,3.98,1.29c-0.16,0.45-0.23,0.68-0.39,1.13c-0.52-0.18-0.78-0.26-1.29-0.43c-1.41,0.71-2.11,1.07-3.48,1.82
			c-0.14,0.44-0.2,0.66-0.34,1.11c0.45,0.14,0.67,0.21,1.11,0.35c-0.16,0.49-0.23,0.74-0.39,1.23c-1.71-0.54-2.57-0.79-4.29-1.27
			c0.14-0.5,0.21-0.75,0.34-1.24c0.43,0.12,0.65,0.18,1.08,0.3c0.11-0.4,0.17-0.6,0.29-1c-0.88-1.46-1.33-2.19-2.27-3.63
			c-0.35-0.09-0.53-0.14-0.88-0.22C129.82,120.55,129.88,120.32,129.99,119.86z"/>
	</g>
</g>
<g>
	<path class="st0" d="M54.65,128.08c0,0.95-0.77,1.73-1.73,1.73s-1.73-0.77-1.73-1.73c0-0.95,0.77-1.73,1.73-1.73
		S54.65,127.13,54.65,128.08z"/>
</g>
<g>
	<path class="st0" d="M145.9,128.08c0,0.95-0.77,1.73-1.73,1.73c-0.95,0-1.73-0.77-1.73-1.73c0-0.95,0.77-1.73,1.73-1.73
		C145.13,126.35,145.9,127.13,145.9,128.08z"/>
</g>
<g>
	<g>
		<path class="st0" d="M99.37,127.06c-1.5,1.3-2.34,3.03-2.34,4.85c0,1.82,0.84,3.55,2.34,4.85c1.49-1.3,2.34-3.03,2.34-4.85
			C101.7,130.09,100.86,128.36,99.37,127.06z"/>
	</g>
	<g>
		<path class="st0" d="M94.83,131.91c0-1.87,0.65-3.65,1.82-5.15c-1.3,0.23-2.54,0.71-3.56,1.43c-1.71,1.21-2.45,2.85-2.23,4.43
			c1.35,0.09,2.73-0.07,3.98-0.49C94.84,132.06,94.83,131.99,94.83,131.91z"/>
	</g>
	<g>
		<path class="st0" d="M105.52,128.19c-0.98-0.7-2.17-1.16-3.42-1.41c1.16,1.5,1.8,3.27,1.8,5.13c0,0.09-0.01,0.18-0.02,0.27
			c1.23,0.38,2.56,0.54,3.87,0.45C107.97,131.04,107.23,129.4,105.52,128.19z"/>
	</g>
</g>
<text transform="matrix(1 0 0 1 61.9794 109.665)" class="st1 st2 st3">Blacksmith</text>
</svg>
